<svg width="160" height="160" viewBox="0 0 160 160" fill="none" xmlns="http://www.w3.org/2000/svg">
<path fill-rule="evenodd" clip-rule="evenodd" d="M38 64V99H82V159.975C125.259 158.914 160 123.514 160 80C160 36.4858 125.259 1.08595 82 0.0245056V64H38Z" fill="#19AA9D"/>
<path fill-rule="evenodd" clip-rule="evenodd" d="M0 80C0 39.8957 29.5099 6.6838 68 0.893997V51H23V110H68V159.106C29.5099 153.316 0 120.104 0 80Z" fill="#1DCCBD"/>
<path fill-rule="evenodd" clip-rule="evenodd" d="M68 0.893997C29.5099 6.6838 0 39.8957 0 80C0 120.104 29.5099 153.316 68 159.106V158.094C30.0644 152.313 1 119.551 1 80C1 40.4491 30.0644 7.68658 68 1.90553V0.893997ZM82 1.02482C124.706 2.08601 159 37.0381 159 80C159 122.962 124.706 157.914 82 158.975V159.975C125.259 158.914 160 123.514 160 80C160 36.4858 125.259 1.08595 82 0.0245056V1.02482Z" fill="black"/>
</svg>
